<?xml version="1.0" encoding="utf-8"?>
<svg viewBox="0.778 323.962 497.433 56.622" xmlns="http://www.w3.org/2000/svg">
  <path style="stroke-linecap: round; stroke-width: 0px; stroke: rgb(8, 155, 62); fill: rgb(242, 220, 140);" d="M 499.315 367.367 C 499.315 367.367 387.522 372.651 377.257 367.572 C 366.992 362.493 269.719 386.809 284.733 378.96 C 299.747 371.111 96.658 369.265 96.658 369.265 C 96.658 369.265 -0.62 374.96 -0.467 374.96 C -0.313 374.96 -1.079 363.57 -0.313 364.186 C 0.452 364.802 275.598 364.802 275.598 364.802 C 275.598 364.802 141.756 346.55 145.28 351.629 C 148.804 356.708 -1.64 340.855 -1.64 340.855 L -2.1 323.771 C -2.1 323.771 117.095 340.086 192.164 341.933 C 267.235 343.78 331.988 365.327 365.692 352.091 C 399.398 338.855 501.734 349.781 501.734 349.473 C 501.734 349.165 500.355 367.326 499.315 367.367 Z"/>
</svg>