<svg xmlns="http://www.w3.org/2000/svg" id="Capa_1" height="300" viewBox="0 0 512 512" width="512"><g><path d="m512 256c0 83.74-40.21 158.09-102.37 204.79-42.79 32.15-95.99-5.999-153.63-5.999-16.6 0-32.83-1.58-48.55-4.6-38.87-7.46-74.61 33.49-105.08 10.599-62.16-46.7-102.37-121.05-102.37-204.79 0-141.38 114.62-256 256-256s256 114.62 256 256z" fill="#78d0b1"></path><path d="m272.244 52.472h118.385v31.924h-118.385z" fill="#26457d"></path><path d="m265.384 13.897h-18.769c-22.412 0-40.581 18.169-40.581 40.581v105.737h99.93v-105.737c.001-22.413-18.167-40.581-40.58-40.581z" fill="#f9f6f9"></path><path d="m271.565 14.368c-19.47 2.99-34.38 19.81-34.38 40.11v105.73h-31.15v-105.73c0-22.41 18.17-40.58 40.58-40.58h18.77c2.1 0 4.16.16 6.18.47z" fill="#dddaec"></path><path d="m409.63 243.76v217.03c-42.79 32.15-95.99 51.21-153.63 51.21s-110.84-19.06-153.63-51.21v-217.03c0-68.91 55.86-124.78 124.78-124.78h57.7c68.92 0 124.78 55.87 124.78 124.78z" fill="#f6e266"></path><path d="m308.54 121.22c-57.58 11.07-101.09 61.73-101.09 122.54v263.64c-38.87-7.46-74.61-23.72-105.08-46.61v-217.03c0-68.91 55.86-124.78 124.78-124.78h57.71c8.1 0 16.01.77 23.68 2.24z" fill="#ffd064"></path><path d="m441.175 15.684-99.762 16.835v71.829l99.762 16.835z" fill="#30579d"></path><path d="m441.175 85.733v35.45l-99.76-16.83v-24.14z" fill="#26457d"></path><path d="m441.175 132.683c-6.352 0-11.5-5.149-11.5-11.5v-105.499c0-6.351 5.148-11.5 11.5-11.5s11.5 5.149 11.5 11.5v105.499c0 6.351-5.149 11.5-11.5 11.5z" fill="#26457d"></path><g><g><path d="m311.044 393.582c-15.161 0-16.31-.384-17.509-.783-2.988-.996-5.223-3.26-6.131-6.213-1.543-5.014.701-7.953 5.618-14.392 3.934-5.15 11.254-14.736 23.523-32.265 3.51-5.015 5.773-9.474 6.734-13.262l.235-1.842c-.258-5.699-4.975-10.256-10.737-10.256-5.125 0-9.56 3.64-10.545 8.654-.966 4.92-5.733 8.124-10.657 7.158-4.92-.966-8.125-5.738-7.159-10.658 2.654-13.507 14.581-23.311 28.361-23.311 15.938 0 28.904 12.966 28.904 28.904 0 .385-.025.769-.073 1.151l-.383 2.997c-.039.302-.092.602-.161.899-1.426 6.148-4.67 12.869-9.644 19.976-7.894 11.279-13.783 19.336-18.061 25.065 6.754-.015 14.811-.079 22.413-.175.039-.001.078-.001.117-.001 4.96 0 9.012 3.989 9.075 8.964.064 5.013-3.949 9.128-8.962 9.192-11.005.139-19.047.198-24.958.198z" fill="#26457d"></path></g><path d="m221.727 393.565c-30.158 0-54.693-24.535-54.693-54.692s24.535-54.692 54.693-54.692c30.157 0 54.691 24.535 54.691 54.692s-24.534 54.692-54.691 54.692zm0-91.228c-20.146 0-36.536 16.39-36.536 36.536s16.39 36.536 36.536 36.536 36.535-16.39 36.535-36.536-16.389-36.536-36.535-36.536z" fill="#26457d"></path></g><circle cx="330.771" cy="220.737" fill="#fff0af" r="36.912"></circle><circle cx="202.728" cy="75.622" fill="#dd5790" r="37.313"></circle><circle cx="202.728" cy="75.622" fill="#bed8fb" r="18"></circle></g></svg>