<svg width="1366" height="336" viewBox="0 0 1366 336" fill="none" xmlns="http://www.w3.org/2000/svg">
<rect y="275" width="1366" height="61" fill="#4D4E7B"/>
<path d="M0 105.37C0 105.37 44.7379 64.9557 89.4771 24.5434C134.216 -15.8688 136.866 56.6768 184.257 88.8082C231.648 120.939 241.746 82.551 299.237 76.2918C356.728 70.0325 337.159 45.4214 375.08 14.551C413.002 -16.3194 440.789 51.9617 506.498 89.3725C572.206 126.783 546.66 96.6095 586.82 103.846C626.98 111.083 652.421 58.9982 718.02 14.152C783.62 -30.6942 765.039 42.8375 812.058 71.5229C859.077 100.208 859.786 83.5225 907.516 95.5201C955.245 107.518 957.774 71.1322 1008.03 46.7443C1058.29 22.3564 1066.65 69.3504 1125.28 91.9564C1183.9 114.562 1180.85 61.948 1236.43 31.9417C1292.01 1.93532 1276.58 57.4685 1316.72 82.9954L1366 93.2111V275H0V105.37Z" fill="#4D4E7B"/>
</svg>
