<svg width="1366" height="379" viewBox="0 0 1366 379" fill="none" xmlns="http://www.w3.org/2000/svg">
<rect y="241" width="1366" height="138" fill="#626493"/>
<path d="M0 60.9229C0 60.9229 51.0283 35.5969 102.058 10.2709C153.088 -15.0551 152.498 13.9673 202.937 17.6619C253.377 21.3565 254.695 13.791 306.453 9.91834C358.21 6.04566 358.855 46.5226 411.259 83.125C463.663 119.727 456.09 73.1752 500.92 63.2255C545.751 53.2757 545.746 74.5436 590.572 85.8618C635.399 97.18 652.978 76.5754 715.384 67.2908C777.789 58.0061 763.982 77.6803 812.579 88.0717C861.176 98.4631 860.337 59.6708 908.094 31.2717C955.85 2.87264 974.403 18.2343 1040.71 5.19698C1107.03 -7.84039 1090.86 13.2349 1141.01 21.2711C1191.16 29.3072 1186.56 16.0118 1232.11 10.7525C1277.66 5.4932 1283.76 39.5932 1335.41 68.4357L1366 63.8724V241H0V60.9229Z" fill="#626493"/>
</svg>
